<?xml version="1.0" standalone="no"?><!DOCTYPE svg PUBLIC "-//W3C//DTD SVG 1.1//EN" "http://www.w3.org/Graphics/SVG/1.1/DTD/svg11.dtd"><svg t="1550200316107" class="icon" style="" viewBox="0 0 1024 1024" version="1.1" xmlns="http://www.w3.org/2000/svg" p-id="14577" xmlns:xlink="http://www.w3.org/1999/xlink" width="48" height="48"><defs><style type="text/css"></style></defs><path d="M352 448h64v288h-64z" fill="#FD5C3F" p-id="14578"></path><path d="M288 416h192v64H288zM608 448h64v288h-64z" fill="#FD5C3F" p-id="14579"></path><path d="M544 416h192v64h-192zM32 416h64v320H32zM160 416h64v320H160z" fill="#FD5C3F" p-id="14580"></path><path d="M96 544h96v64H96zM800 416h64v320h-64z" fill="#FD5C3F" p-id="14581"></path><path d="M941.248 608H832v-64h82.752l13.248-13.248v-37.504L914.752 480H832v-64h109.248L992 466.752v90.496z" fill="#FD5C3F" p-id="14582"></path><path d="M64 352H0V0h1024v352h-64V64H64zM1024 1024H0v-224h64v160h896v-160h64z" fill="#FD5C3F" p-id="14583"></path><path d="M32 128h960v64H32z" fill="#FD5C3F" p-id="14584"></path></svg>