<?xml version="1.0" standalone="no"?><!DOCTYPE svg PUBLIC "-//W3C//DTD SVG 1.1//EN" "http://www.w3.org/Graphics/SVG/1.1/DTD/svg11.dtd"><svg t="1550201318042" class="icon" style="" viewBox="0 0 1032 1024" version="1.1" xmlns="http://www.w3.org/2000/svg" p-id="16442" xmlns:xlink="http://www.w3.org/1999/xlink" width="48.375" height="48"><defs><style type="text/css"></style></defs><path d="M768.032656 459.55422a147.831038 147.831038 0 0 1-84.986848 63.99612c-9.599418 2.879825-17.022968 4.031756-23.806557 4.031755A28.030301 28.030301 0 0 1 630.88897 499.231814c0-15.871038 12.479243-28.350281 28.350281-28.350281 1.087934 0 3.391794 0 6.207624-1.087934 24.318526-6.847585 43.645354-20.990727 54.396702-39.677595 7.359554-11.903278 10.751348-24.958487 10.751348-38.525664 0-44.797284-41.341494-81.595053-91.770436-81.595053a102.393792 102.393792 0 0 0-49.916974 12.991212c-26.55839 15.359069-42.429428 40.829525-42.429428 68.603841v237.425606c0 48.125082-26.622386 92.346401-70.843705 117.240892a155.830553 155.830553 0 0 1-77.627294 20.414763c-82.107022 0-148.982968-61.756256-148.982968-138.23162 0-23.806557 6.783589-47.037148 19.198837-68.027876a147.831038 147.831038 0 0 1 85.050843-63.99612c10.239379-2.879825 16.958972-3.967759 23.806557-3.96776 15.871038 0 28.286285 12.479243 28.286285 28.286285a28.030301 28.030301 0 0 1-28.286285 28.350282c-1.15193 0-3.391794 0-6.27162 1.15193-24.318526 7.359554-43.581358 21.502696-54.396702 39.677594-7.359554 11.839282-10.751348 24.958487-10.751348 38.525665 0 44.733288 41.341494 81.531057 92.346401 81.531057 17.598933 0 34.557905-4.479728 49.916974-12.991212 26.55839-15.359069 42.429428-40.829525 42.429428-68.539845V391.59034c0-48.189079 26.622386-92.346401 70.843705-117.304889a147.191077 147.191077 0 0 1 77.051329-20.926731c82.171018 0 149.046964 61.756256 149.046964 138.23162 0 23.806557-6.847585 47.037148-19.262832 67.96388M518.127806 0.062076a509.985082 509.985082 0 1 0 0.127992 1019.970165A509.985082 509.985082 0 0 0 518.127806 0.062076" fill="#2E9A47" p-id="16443"></path></svg>