<?xml version="1.0" standalone="no"?><!DOCTYPE svg PUBLIC "-//W3C//DTD SVG 1.1//EN" "http://www.w3.org/Graphics/SVG/1.1/DTD/svg11.dtd"><svg t="1550072325641" class="icon" style="" viewBox="0 0 1024 1024" version="1.1" xmlns="http://www.w3.org/2000/svg" p-id="24769" xmlns:xlink="http://www.w3.org/1999/xlink" width="48" height="48"><defs><style type="text/css"></style></defs><path d="M264.192 353.792l137.728 137.216 66.048-64.512-137.728-136.704 32.768-32.256-184.32-179.2-132.096 128 184.832 179.2 32.768-31.744z m237.056 367.616c0-0.512 0-0.512 0 0z m190.976-160.768s-112.64 29.696-190.976 160.768c5.12 1.024 208.384 206.848 208.384 206.848 36.352 35.328 95.744 35.328 132.096 0l52.736-51.2c36.352-35.328 36.352-92.672 0-128l-202.24-188.416z m91.648 332.288c-9.216 8.704-24.064 8.704-32.768 0l-169.472-164.352c-9.216-8.704-9.216-23.04 0-31.744 9.216-8.704 24.064-8.704 32.768 0l169.472 164.352c8.704 8.192 8.704 22.528 0 31.744z m74.24-72.192c-9.216 8.704-24.064 8.704-32.768 0L655.36 656.384c-9.216-8.704-9.216-23.04 0-31.744 9.216-8.704 24.064-8.704 32.768 0l169.472 164.352c9.728 8.192 9.728 22.528 0.512 31.744z" fill="#2DCC70" p-id="24770"></path><path d="M977.408 262.656c0-2.048 0-4.096-0.512-6.144H885.76l-36.352 36.352-27.648 27.648-28.16 28.16-75.776-19.968-20.48-75.776 28.16-28.16 27.648-27.648 36.352-36.352V69.632c-2.048 0-5.12-0.512-7.168-0.512-54.784-2.048-111.104 17.408-153.6 59.392-35.84 35.84-55.808 81.408-59.392 128-2.048 28.16 1.024 56.32 10.24 82.944 0 0.512 0.512 1.024 0.512 2.048 2.56 9.216 3.072 20.48-8.192 32.256-14.848 14.336-453.632 431.104-453.632 431.104-36.352 31.232-33.792 89.088 0 123.392 34.304 33.792 91.648 35.84 123.392-0.512 0 0 413.184-437.248 431.104-455.168 9.216-9.216 18.944-10.752 26.624-9.728 5.12 1.536 9.216 3.072 14.336 5.12 24.576 7.68 51.2 10.24 76.288 8.192 46.592-4.096 92.672-23.552 128-59.392 41.984-41.472 61.952-98.304 59.392-154.112zM201.728 886.272c-11.776 11.776-29.696 11.776-41.472 0s-11.776-29.696 0-41.472 29.696-11.776 41.472 0c10.752 11.776 10.752 29.696 0 41.472z" fill="#2DCC70" p-id="24771"></path></svg>