<?xml version="1.0" standalone="no"?><!DOCTYPE svg PUBLIC "-//W3C//DTD SVG 1.1//EN" "http://www.w3.org/Graphics/SVG/1.1/DTD/svg11.dtd"><svg t="1550068992656" class="icon" style="" viewBox="0 0 1024 1024" version="1.1" xmlns="http://www.w3.org/2000/svg" p-id="11323" xmlns:xlink="http://www.w3.org/1999/xlink" width="48" height="48"><defs><style type="text/css"></style></defs><path d="M184.667372 232.513588 247.308037 935.508573 528.578072 1013.585813 810.614563 935.390893 873.403608 232.513588ZM737.268068 465.178625 736.95903 465.178625 407.34187 465.178625 415.204955 553.463344 729.431589 553.463344 705.733864 818.140469 529.303596 867.095437 529.115308 867.139439 529.022187 867.139439 528.898367 867.139439 352.281857 818.140469 340.22424 682.745802 426.790828 682.745802 432.915315 751.565191 528.922926 777.441535 529.144984 777.369903 625.175107 751.447511 635.138016 639.676891 336.360236 639.676891 313.095369 378.969171 744.971517 378.969171ZM229.326501 150.587694 229.326501 10.233062 276.821211 10.233062 276.821211 56.666604 319.030545 56.666604 319.030545 10.233062 365.464087 10.233062 365.464087 150.587694 319.030545 150.587694 319.030545 104.153128 276.821211 104.153128 276.821211 150.587694ZM386.569778 57.722656 386.569778 10.233062 515.312954 10.233062 515.312954 57.722656 474.162742 57.722656 474.162742 150.587694 427.728176 150.587694 427.728176 57.722656ZM535.365662 150.587694 535.365662 10.233062 584.963267 10.233062 613.458251 58.774615 643.010311 10.233062 692.608939 10.233062 692.608939 150.587694 647.227356 150.587694 647.227356 78.828346 613.458251 131.590014 613.458251 130.538055 581.800227 80.939427 581.800227 150.587694ZM716.878692 150.587694 716.878692 10.233062 763.312234 10.233062 763.312234 103.097076 828.740386 103.097076 828.740386 150.587694Z" p-id="11324" fill="#1296db"></path></svg>